<svg id="Layer_1" data-name="Layer 1" xmlns="http://www.w3.org/2000/svg" viewBox="0 0 282.65 282.64"><defs><style>.cls-1{fill:#d10a10;fill-rule:evenodd;}</style></defs><title>logo-nisp</title><path class="cls-1" d="M71.41,134.21,4.25,108.54A141.53,141.53,0,0,1,23.56,64.06l60.05,37.32a70.62,70.62,0,0,0-12.2,32.83Zm80.18,30.62V143.65L92.72,107a71.17,71.17,0,0,0-13.43,30.18l72.3,27.64Zm0-24-56-37.37a71.23,71.23,0,0,1,25.75-18.6l30.22,30.88v25.09ZM8.24,188.31H151.59V167.38l-73-25.62a68.4,68.4,0,0,0-.5,8.27c0,12.95,3.51,25.1,8.54,36A70.38,70.38,0,0,1,71,141.67l0-2.55-68.21-24a141.84,141.84,0,0,0,5.39,73.16Zm5.19,12.84C12.19,198.48,11,195.74,10,193H52.08l7.8,8.23h63l-13.82,14.58H31.49a20.88,20.88,0,0,0-18.06-14.67Zm160.36,3.49h0c-31.24,16.72-71.73,15.49-71.73,15.49l-77.18,1.19,200.93,10.46L33.81,233l181.69,9H42.16A141.31,141.31,0,1,0,69,20.45l49.32,54.49a70.7,70.7,0,0,1,77,112.73,60.73,60.73,0,0,1-7.69,7.61,71.73,71.73,0,0,1-13.88,9.36ZM86.57,97.43a71.16,71.16,0,0,1,26.92-20.56L62.42,24.68A141.27,141.27,0,0,0,27.71,58.13Z" transform="translate(-0.35 -0.36)"/></svg>